<?xml version="1.0" encoding="iso-8859-1"?>
<!-- Generator: Adobe Illustrator 19.0.0, SVG Export Plug-In . SVG Version: 6.00 Build 0)  -->
<svg version="1.1" id="Capa_1" xmlns="http://www.w3.org/2000/svg" xmlns:xlink="http://www.w3.org/1999/xlink" x="0px" y="0px"
	 viewBox="0 0 463.205 463.205" style="enable-background:new 0 0 463.205 463.205;" xml:space="preserve">
<path d="M406.31,236.147l-24-48c-0.726-1.452-1.902-2.628-3.354-3.354l-32-16c-1.779-0.89-3.838-1.036-5.726-0.407l-19.337,6.446
	c-1.38-6.02-2.9-12.002-4.579-17.888c-6.508-22.818-14.698-41.646-24.396-56.169c0.547-0.551,1.025-1.188,1.391-1.92l16-32
	c0.521-1.042,0.792-2.189,0.792-3.354V33.923c0-3.071-0.9-6.044-2.604-8.598L293.843,3.341c-2.297-3.447-6.955-4.378-10.4-2.08
	c-3.447,2.297-4.378,6.954-2.08,10.4l14.656,21.985c0.055,0.083,0.084,0.178,0.084,0.277v5.583c0,11.491-6.894,21.674-17.563,25.942
	l-15.856,6.343c-9.551-5.164-19.93-7.79-31.08-7.79s-21.53,2.626-31.08,7.79l-15.857-6.343
	c-10.669-4.268-17.563-14.451-17.563-25.948v-5.578c0-0.099,0.029-0.195,0.084-0.278l14.656-21.984
	c2.298-3.446,1.367-8.103-2.08-10.4c-3.446-2.297-8.103-1.367-10.4,2.08l-14.656,21.984c-1.703,2.555-2.604,5.528-2.604,8.599
	v29.578c0,1.165,0.271,2.312,0.792,3.354l16,32c0.366,0.733,0.844,1.369,1.391,1.92c-9.698,14.523-17.888,33.351-24.396,56.168
	c-1.679,5.886-3.199,11.867-4.579,17.888l-19.337-6.446c-1.887-0.629-3.946-0.483-5.726,0.407l-32,16
	c-1.452,0.726-2.628,1.902-3.354,3.354l-24,48c-1.853,3.705-0.351,8.21,3.354,10.062c1.077,0.539,2.221,0.793,3.348,0.793
	c2.751,0,5.4-1.52,6.714-4.147l22.882-45.764l26.985-13.493l18.032,6.01c-3.383,17.676-5.652,35.303-7.166,51.506l-21.813,7.271
	c-1.75,0.583-3.225,1.792-4.14,3.394l-32,56c-0.508,0.89-0.829,1.875-0.942,2.893l-8,72c-0.458,4.117,2.509,7.825,6.626,8.282
	c0.281,0.031,0.561,0.046,0.837,0.046c3.771,0,7.019-2.837,7.445-6.672l7.829-70.456l29.808-52.163l13.036-4.345
	c-1.35,19.639-1.626,36.042-1.626,46.136c0,74.123,48.944,126.099,78.119,150.484c7.354,6.147,16.366,9.22,25.381,9.22
	c9.013,0,18.028-3.074,25.381-9.22c29.175-24.385,78.119-76.362,78.119-150.484c0-10.095-0.277-26.497-1.626-46.136l13.036,4.345
	l29.808,52.163l7.829,70.456c0.426,3.836,3.674,6.673,7.445,6.672c0.276,0,0.556-0.015,0.837-0.046
	c4.117-0.458,7.083-4.166,6.626-8.282l-8-72c-0.113-1.019-0.434-2.003-0.942-2.893l-32-56c-0.916-1.602-2.39-2.811-4.14-3.394
	l-21.813-7.271c-1.514-16.203-3.782-33.83-7.166-51.506l18.032-6.01l26.985,13.493l22.882,45.764
	c1.314,2.628,3.962,4.148,6.714,4.147c1.127,0,2.271-0.255,3.348-0.793C406.662,244.357,408.163,239.851,406.31,236.147z
	 M231.595,246.816c-10.249-6.263-40.906-26.934-66.255-63.816h132.522C272.569,219.77,241.851,240.528,231.595,246.816z
	 M168.513,136.765c4.877,2.446,9.918,3.672,14.946,3.671c8.906-0.001,17.767-3.811,25.573-11.332
	c1.388-1.337,3.43-2.104,5.604-2.104h33.935c2.173,0,4.216,0.767,5.603,2.103c12.215,11.767,27.003,14.444,40.521,7.665
	c2.95,7.396,5.685,15.486,8.196,24.289c0.656,2.298,1.277,4.617,1.885,6.943h-65.672v-8.5c0-4.142-3.358-7.5-7.5-7.5
	s-7.5,3.358-7.5,7.5v8.5H158.43c0.607-2.326,1.229-4.645,1.885-6.943C162.826,152.254,165.562,144.162,168.513,136.765z
	 M189.496,100.057l9.124,18.249c-7.835,7.546-15.888,9.118-23.978,4.74C179.173,113.997,184.125,106.326,189.496,100.057z
	 M288.563,123.046c-8.09,4.379-16.143,2.807-23.978-4.74l9.124-18.248C279.08,106.326,284.032,113.997,288.563,123.046z
	 M284.11,79.375c1.421-0.568,2.794-1.209,4.125-1.909l-5.26,10.52c-1.892-2.076-3.829-4.023-5.814-5.831L284.11,79.375z
	 M262.313,89.311l-11.402,22.804c-0.772-0.074-1.552-0.114-2.341-0.114h-33.935c-0.788,0-1.569,0.041-2.341,0.114l-11.402-22.804
	c9.248-6.851,19.491-10.31,30.71-10.31S253.065,82.46,262.313,89.311z M179.095,79.375l6.95,2.78
	c-1.985,1.808-3.922,3.755-5.814,5.831l-5.26-10.52C176.301,78.166,177.674,78.807,179.095,79.375z M153.086,191.667
	c27.214,39.592,59.781,61.396,71.016,68.168v47.721c-18.109,12.957-32.988,32.651-41.156,54.646
	c-4.829,13.003-7.005,25.963-6.559,38.265c-18.08-24.984-33.285-57.677-33.285-96.967
	C143.102,283.35,144.224,237.471,153.086,191.667z M247.363,442.476c-9.132,7.634-22.39,7.634-31.521,0
	c-5.43-4.538-11.596-10.1-17.986-16.634c-8.378-16.578-8.698-37.277-0.848-58.419c6.961-18.745,19.431-35.518,34.594-46.761
	c15.163,11.243,27.633,28.016,34.594,46.761c7.85,21.142,7.53,41.841-0.848,58.419C258.959,432.376,252.793,437.938,247.363,442.476
	z M286.817,400.467c0.446-12.302-1.731-25.262-6.559-38.265c-8.167-21.995-23.047-41.689-41.156-54.646v-47.721
	c11.235-6.772,43.802-28.576,71.016-68.168c8.862,45.804,9.984,91.684,9.984,111.834
	C320.102,342.791,304.897,375.483,286.817,400.467z"/>
<g>
</g>
<g>
</g>
<g>
</g>
<g>
</g>
<g>
</g>
<g>
</g>
<g>
</g>
<g>
</g>
<g>
</g>
<g>
</g>
<g>
</g>
<g>
</g>
<g>
</g>
<g>
</g>
<g>
</g>
</svg>
